<?xml version="1.0" encoding="UTF-8" standalone="no"?><svg xmlns="http://www.w3.org/2000/svg" xmlns:xlink="http://www.w3.org/1999/xlink" contentStyleType="text/css" height="563.5px" preserveAspectRatio="none" style="width:371px;height:563px;background:#FFFFFF;" version="1.1" viewBox="0 0 371 563" width="371.7px" zoomAndPan="magnify"><defs/><g><ellipse cx="187.95" cy="14" fill="#222222" rx="7" ry="7" style="stroke:#222222;stroke-width:0.6999999999999998;"/><rect fill="#F1F1F1" height="25.1727" rx="8.75" ry="8.75" style="stroke:#181818;stroke-width:0.3499999999999999;" width="53.9" x="161" y="35"/><text fill="#000000" font-family="sans-serif" font-size="8.4" lengthAdjust="spacing" textLength="37.8" x="170.1" y="51.0645">Config.tsx</text><rect fill="#F1F1F1" height="25.1727" rx="8.75" ry="8.75" style="stroke:#181818;stroke-width:0.3499999999999999;" width="107.1" x="134.4" y="74.1727"/><text fill="#000000" font-family="sans-serif" font-size="8.4" lengthAdjust="spacing" textLength="91" x="143.5" y="90.2371">Input bitLength, difficulty</text><polygon fill="#F1F1F1" points="173.6,113.3453,202.3,113.3453,210.7,121.7453,202.3,130.1453,173.6,130.1453,165.2,121.7453,173.6,113.3453" style="stroke:#181818;stroke-width:0.3499999999999999;"/><text fill="#000000" font-family="sans-serif" font-size="7.7" lengthAdjust="spacing" textLength="28.7" x="173.6" y="124.9336">difficulty</text><rect fill="#F1F1F1" height="25.1727" rx="8.75" ry="8.75" style="stroke:#181818;stroke-width:0.3499999999999999;" width="117.6" x="7.7" y="157.6285"/><text fill="#000000" font-family="sans-serif" font-size="8.4" lengthAdjust="spacing" textLength="101.5" x="16.8" y="173.693">AutomaticSetter(bitLength)</text><rect fill="#F1F1F1" height="25.1727" rx="8.75" ry="8.75" style="stroke:#181818;stroke-width:0.3499999999999999;" width="81.9" x="150.5" y="157.6285"/><text fill="#000000" font-family="sans-serif" font-size="8.4" lengthAdjust="spacing" textLength="65.8" x="159.6" y="173.693">SetPQ(bitLength)</text><rect fill="#F1F1F1" height="25.1727" rx="8.75" ry="8.75" style="stroke:#181818;stroke-width:0.3499999999999999;" width="84.7" x="149.1" y="196.8012"/><text fill="#000000" font-family="sans-serif" font-size="8.4" lengthAdjust="spacing" textLength="68.6" x="158.2" y="212.8656">ConfigMedium.tsx</text><rect fill="#F1F1F1" height="25.1727" rx="8.75" ry="8.75" style="stroke:#181818;stroke-width:0.3499999999999999;" width="110.6" x="136.15" y="235.9738"/><text fill="#000000" font-family="sans-serif" font-size="8.4" lengthAdjust="spacing" textLength="94.5" x="145.25" y="252.0383">ConfigMediumHelper.tsx</text><rect fill="#F1F1F1" height="25.1727" rx="8.75" ry="8.75" style="stroke:#181818;stroke-width:0.3499999999999999;" width="42" x="170.45" y="275.1465"/><text fill="#000000" font-family="sans-serif" font-size="8.4" lengthAdjust="spacing" textLength="25.9" x="179.55" y="291.2109">Input e</text><rect fill="#F1F1F1" height="25.1727" rx="8.75" ry="8.75" style="stroke:#181818;stroke-width:0.3499999999999999;" width="109.9" x="254.1" y="157.6285"/><text fill="#000000" font-family="sans-serif" font-size="8.4" lengthAdjust="spacing" textLength="93.8" x="263.2" y="173.693">PseudoSetter(bitLength)</text><rect fill="#F1F1F1" height="25.1727" rx="8.75" ry="8.75" style="stroke:#181818;stroke-width:0.3499999999999999;" width="72.8" x="272.65" y="196.8012"/><text fill="#000000" font-family="sans-serif" font-size="8.4" lengthAdjust="spacing" textLength="56.7" x="281.75" y="212.8656">ConfigHard.tsx</text><rect fill="#F1F1F1" height="25.1727" rx="8.75" ry="8.75" style="stroke:#181818;stroke-width:0.3499999999999999;" width="110.6" x="253.75" y="235.9738"/><text fill="#000000" font-family="sans-serif" font-size="8.4" lengthAdjust="spacing" textLength="94.5" x="262.85" y="252.0383">ConfigMediumHelper.tsx</text><rect fill="#F1F1F1" height="25.1727" rx="8.75" ry="8.75" style="stroke:#181818;stroke-width:0.3499999999999999;" width="60.2" x="278.95" y="275.1465"/><text fill="#000000" font-family="sans-serif" font-size="8.4" lengthAdjust="spacing" textLength="44.1" x="288.05" y="291.2109">Input p, q, e</text><polygon fill="#F1F1F1" points="187.95,314.3191,187.95,314.3191,196.35,322.7191,187.95,331.1191,187.95,331.1191,179.55,322.7191,187.95,314.3191" style="stroke:#181818;stroke-width:0.3499999999999999;"/><rect fill="#F1F1F1" height="25.1727" rx="8.75" ry="8.75" style="stroke:#181818;stroke-width:0.3499999999999999;" width="60.9" x="157.5" y="345.1191"/><text fill="#000000" font-family="sans-serif" font-size="8.4" lengthAdjust="spacing" textLength="44.8" x="166.6" y="361.1836">GetKeys.tsx</text><rect fill="#F1F1F1" height="25.1727" rx="8.75" ry="8.75" style="stroke:#181818;stroke-width:0.3499999999999999;" width="86.8" x="144.55" y="384.2918"/><text fill="#000000" font-family="sans-serif" font-size="8.4" lengthAdjust="spacing" textLength="70.7" x="153.65" y="400.3562">GetKeysHelper.tsx</text><rect fill="#F1F1F1" height="25.1727" rx="8.75" ry="8.75" style="stroke:#181818;stroke-width:0.3499999999999999;" width="60.2" x="157.85" y="423.4645"/><text fill="#000000" font-family="sans-serif" font-size="8.4" lengthAdjust="spacing" textLength="44.1" x="166.95" y="439.5289">Input e, d, n</text><rect fill="#F1F1F1" height="25.1727" rx="8.75" ry="8.75" style="stroke:#181818;stroke-width:0.3499999999999999;" width="85.4" x="145.25" y="462.6371"/><text fill="#000000" font-family="sans-serif" font-size="8.4" lengthAdjust="spacing" textLength="69.3" x="154.35" y="478.7016">EncryptDecrypt.tsx</text><rect fill="#F1F1F1" height="25.1727" rx="8.75" ry="8.75" style="stroke:#181818;stroke-width:0.3499999999999999;" width="111.3" x="132.3" y="501.8098"/><text fill="#000000" font-family="sans-serif" font-size="8.4" lengthAdjust="spacing" textLength="95.2" x="141.4" y="517.8742">EncryptDecryptHelper.tsx</text><ellipse cx="187.95" cy="548.6824" fill="none" rx="7.7" ry="7.7" style="stroke:#222222;stroke-width:0.6999999999999998;"/><ellipse cx="187.95" cy="548.6824" fill="#222222" rx="4.2" ry="4.2" style="stroke:#111111;stroke-width:0.6999999999999998;"/><line style="stroke:#181818;stroke-width:0.6999999999999998;" x1="187.95" x2="187.95" y1="21" y2="35"/><polygon fill="#181818" points="185.15,28,187.95,35,190.75,28,187.95,30.8" style="stroke:#181818;stroke-width:0.6999999999999998;"/><line style="stroke:#181818;stroke-width:0.6999999999999998;" x1="187.95" x2="187.95" y1="60.1727" y2="74.1727"/><polygon fill="#181818" points="185.15,67.1727,187.95,74.1727,190.75,67.1727,187.95,69.9727" style="stroke:#181818;stroke-width:0.6999999999999998;"/><line style="stroke:#181818;stroke-width:0.6999999999999998;" x1="191.45" x2="191.45" y1="182.8012" y2="196.8012"/><polygon fill="#181818" points="188.65,189.8012,191.45,196.8012,194.25,189.8012,191.45,192.6012" style="stroke:#181818;stroke-width:0.6999999999999998;"/><line style="stroke:#181818;stroke-width:0.6999999999999998;" x1="191.45" x2="191.45" y1="221.9738" y2="235.9738"/><polygon fill="#181818" points="188.65,228.9738,191.45,235.9738,194.25,228.9738,191.45,231.7738" style="stroke:#181818;stroke-width:0.6999999999999998;"/><line style="stroke:#181818;stroke-width:0.6999999999999998;" x1="191.45" x2="191.45" y1="261.1465" y2="275.1465"/><polygon fill="#181818" points="188.65,268.1465,191.45,275.1465,194.25,268.1465,191.45,270.9465" style="stroke:#181818;stroke-width:0.6999999999999998;"/><line style="stroke:#181818;stroke-width:0.6999999999999998;" x1="309.05" x2="309.05" y1="182.8012" y2="196.8012"/><polygon fill="#181818" points="306.25,189.8012,309.05,196.8012,311.85,189.8012,309.05,192.6012" style="stroke:#181818;stroke-width:0.6999999999999998;"/><line style="stroke:#181818;stroke-width:0.6999999999999998;" x1="309.05" x2="309.05" y1="221.9738" y2="235.9738"/><polygon fill="#181818" points="306.25,228.9738,309.05,235.9738,311.85,228.9738,309.05,231.7738" style="stroke:#181818;stroke-width:0.6999999999999998;"/><line style="stroke:#181818;stroke-width:0.6999999999999998;" x1="309.05" x2="309.05" y1="261.1465" y2="275.1465"/><polygon fill="#181818" points="306.25,268.1465,309.05,275.1465,311.85,268.1465,309.05,270.9465" style="stroke:#181818;stroke-width:0.6999999999999998;"/><line style="stroke:#181818;stroke-width:0.6999999999999998;" x1="165.2" x2="66.5" y1="121.7453" y2="121.7453"/><line style="stroke:#181818;stroke-width:0.6999999999999998;" x1="66.5" x2="66.5" y1="121.7453" y2="157.6285"/><polygon fill="#181818" points="63.7,150.6285,66.5,157.6285,69.3,150.6285,66.5,153.4285" style="stroke:#181818;stroke-width:0.6999999999999998;"/><text fill="#000000" font-family="sans-serif" font-size="7.7" lengthAdjust="spacing" textLength="20.3" x="66.5" y="142.8752">EASY</text><line style="stroke:#181818;stroke-width:0.6999999999999998;" x1="210.7" x2="309.05" y1="121.7453" y2="121.7453"/><line style="stroke:#181818;stroke-width:0.6999999999999998;" x1="309.05" x2="309.05" y1="121.7453" y2="157.6285"/><polygon fill="#181818" points="306.25,150.6285,309.05,157.6285,311.85,150.6285,309.05,153.4285" style="stroke:#181818;stroke-width:0.6999999999999998;"/><text fill="#000000" font-family="sans-serif" font-size="7.7" lengthAdjust="spacing" textLength="20.3" x="309.05" y="142.8752">HARD</text><line style="stroke:#181818;stroke-width:0.6999999999999998;" x1="187.95" x2="187.95" y1="130.1453" y2="139.3064"/><line style="stroke:#181818;stroke-width:0.6999999999999998;" x1="187.95" x2="191.45" y1="139.3064" y2="139.3064"/><line style="stroke:#181818;stroke-width:0.6999999999999998;" x1="191.45" x2="191.45" y1="139.3064" y2="157.6285"/><polygon fill="#181818" points="188.65,150.6285,191.45,157.6285,194.25,150.6285,191.45,153.4285" style="stroke:#181818;stroke-width:0.6999999999999998;"/><text fill="#000000" font-family="sans-serif" font-size="7.7" lengthAdjust="spacing" textLength="26.6" x="187.95" y="143.5752">MEDIUM</text><line style="stroke:#181818;stroke-width:0.6999999999999998;" x1="66.5" x2="66.5" y1="182.8012" y2="322.7191"/><line style="stroke:#181818;stroke-width:0.6999999999999998;" x1="66.5" x2="179.55" y1="322.7191" y2="322.7191"/><polygon fill="#181818" points="172.55,319.9191,179.55,322.7191,172.55,325.5191,175.35,322.7191" style="stroke:#181818;stroke-width:0.6999999999999998;"/><line style="stroke:#181818;stroke-width:0.6999999999999998;" x1="309.05" x2="309.05" y1="300.3191" y2="322.7191"/><line style="stroke:#181818;stroke-width:0.6999999999999998;" x1="309.05" x2="196.35" y1="322.7191" y2="322.7191"/><polygon fill="#181818" points="203.35,319.9191,196.35,322.7191,203.35,325.5191,200.55,322.7191" style="stroke:#181818;stroke-width:0.6999999999999998;"/><line style="stroke:#181818;stroke-width:0.6999999999999998;" x1="191.45" x2="191.45" y1="300.3191" y2="303.8191"/><line style="stroke:#181818;stroke-width:0.6999999999999998;" x1="191.45" x2="187.95" y1="303.8191" y2="303.8191"/><line style="stroke:#181818;stroke-width:0.6999999999999998;" x1="187.95" x2="187.95" y1="303.8191" y2="314.3191"/><polygon fill="#181818" points="185.15,307.3191,187.95,314.3191,190.75,307.3191,187.95,310.1191" style="stroke:#181818;stroke-width:0.6999999999999998;"/><line style="stroke:#181818;stroke-width:0.6999999999999998;" x1="187.95" x2="187.95" y1="99.3453" y2="113.3453"/><polygon fill="#181818" points="185.15,106.3453,187.95,113.3453,190.75,106.3453,187.95,109.1453" style="stroke:#181818;stroke-width:0.6999999999999998;"/><line style="stroke:#181818;stroke-width:0.6999999999999998;" x1="187.95" x2="187.95" y1="331.1191" y2="345.1191"/><polygon fill="#181818" points="185.15,338.1191,187.95,345.1191,190.75,338.1191,187.95,340.9191" style="stroke:#181818;stroke-width:0.6999999999999998;"/><line style="stroke:#181818;stroke-width:0.6999999999999998;" x1="187.95" x2="187.95" y1="370.2918" y2="384.2918"/><polygon fill="#181818" points="185.15,377.2918,187.95,384.2918,190.75,377.2918,187.95,380.0918" style="stroke:#181818;stroke-width:0.6999999999999998;"/><line style="stroke:#181818;stroke-width:0.6999999999999998;" x1="187.95" x2="187.95" y1="409.4645" y2="423.4645"/><polygon fill="#181818" points="185.15,416.4645,187.95,423.4645,190.75,416.4645,187.95,419.2645" style="stroke:#181818;stroke-width:0.6999999999999998;"/><line style="stroke:#181818;stroke-width:0.6999999999999998;" x1="187.95" x2="187.95" y1="448.6371" y2="462.6371"/><polygon fill="#181818" points="185.15,455.6371,187.95,462.6371,190.75,455.6371,187.95,458.4371" style="stroke:#181818;stroke-width:0.6999999999999998;"/><line style="stroke:#181818;stroke-width:0.6999999999999998;" x1="187.95" x2="187.95" y1="487.8098" y2="501.8098"/><polygon fill="#181818" points="185.15,494.8098,187.95,501.8098,190.75,494.8098,187.95,497.6098" style="stroke:#181818;stroke-width:0.6999999999999998;"/><line style="stroke:#181818;stroke-width:0.6999999999999998;" x1="187.95" x2="187.95" y1="526.9824" y2="540.9824"/><polygon fill="#181818" points="185.15,533.9824,187.95,540.9824,190.75,533.9824,187.95,536.7824" style="stroke:#181818;stroke-width:0.6999999999999998;"/><!--SRC=[dL71JiCm3BttAtAZaxhrtfugMkW4bGOJ1uvPuhQHsYGa3b1f7qz6s5OONCWbylEp_UntrIDgcwMf7gX4DmuhfiQKCXIl0gSb5xGpT5pk06cqlp5A8aXEzf55QZ3AoBMIhUXMQDzp7wsbTaXs0kz1TjWdX8ks5SmDEEMHVHF8-lWCBIBY7wCMughOFeSm8uL3DL8KR0k8OE9JkqL-BcYgSltKX99GvjcRXmjoo0ML3N3Xng3rzrmDWmRpan6sWjdqkdWivxCt5XnNV-YTZwcfuVyLe1FoaXnaU0V2BVt5Rm7lOB970xx2UPkJVkz6GkG1g2GpayOIFhyZxJiwRs5HwGy0]--></g></svg>